<svg
  xmlns="http://www.w3.org/2000/svg"
  width="12"
  height="11"
  viewBox="0 0 12 11"
  fill="none"
>
  <path
    fill-rule="evenodd"
    clip-rule="evenodd"
    d="M5.14286 0.785706C3.24931 0.785706 1.71429 2.32073 1.71429 4.21428C1.71429 4.30962 1.71819 4.40413 1.72585 4.49765C0.706439 4.97659 0 6.01248 0 7.21428C0 8.87113 1.34315 10.2143 3 10.2143H9.42857C10.8487 10.2143 12 9.06301 12 7.64285C12 6.68014 11.4711 5.84178 10.689 5.40113C10.7057 5.29351 10.7143 5.18338 10.7143 5.07142C10.7143 3.88795 9.7549 2.92856 8.57143 2.92856C8.48908 2.92856 8.40772 2.93323 8.32761 2.94232C7.82247 1.67875 6.5874 0.785706 5.14286 0.785706ZM6.42857 4.21428C6.42857 3.97758 6.23669 3.78571 6 3.78571C5.76331 3.78571 5.57143 3.97758 5.57143 4.21428V7.03676L4.58876 6.05409C4.42139 5.88672 4.15004 5.88672 3.98267 6.05409C3.8153 6.22146 3.8153 6.49281 3.98267 6.66018L5.69695 8.37447C5.86432 8.54183 6.13568 8.54183 6.30305 8.37447L8.01733 6.66018C8.1847 6.49281 8.1847 6.22146 8.01733 6.05409C7.84996 5.88672 7.57861 5.88672 7.41124 6.05409L6.42857 7.03676V4.21428Z"
    fill="#032CFC"
  ></path>
</svg>
