<svg
  xmlns="http://www.w3.org/2000/svg"
  width="11"
  height="13"
  viewBox="0 0 11 13"
  fill="none"
>
  <path
    d="M2.57143 1.57143C2.57143 0.979695 3.05112 0.5 3.64286 0.5H3.85714C5.04061 0.5 6 1.45939 6 2.64286V3.71429C6 4.30602 6.4797 4.78571 7.07143 4.78571H8.14286C9.32633 4.78571 10.2857 5.7451 10.2857 6.92857V8.85714C10.2857 9.44888 9.80602 9.92857 9.21429 9.92857H3.64286C3.05112 9.92857 2.57143 9.44888 2.57143 8.85714V1.57143Z"
    fill="#032CFC"
  ></path>
  <path
    d="M6.85714 2.64286C6.85714 1.89254 6.58169 1.20656 6.1264 0.680517C8.06864 1.18787 9.59784 2.71707 10.1052 4.65932C9.57915 4.20402 8.89317 3.92857 8.14286 3.92857H7.07143C6.95308 3.92857 6.85714 3.83263 6.85714 3.71429V2.64286Z"
    fill="#032CFC"
  ></path>
  <path
    d="M1.07143 3.07143H1.71429V8.85714C1.71429 9.92226 2.57774 10.7857 3.64286 10.7857H7.71429V11.4286C7.71429 12.0203 7.23459 12.5 6.64286 12.5H1.07143C0.479695 12.5 0 12.0203 0 11.4286V4.14286C0 3.55112 0.479695 3.07143 1.07143 3.07143Z"
    fill="#032CFC"
  ></path>
</svg>
