<svg xmlns="http://www.w3.org/2000/svg" width="24" height="18" viewBox="0 0 24 18" fill="none">
								<path d="M23.7117 9.95147L19.1408 16.8089C18.9842 17.0436 18.7722 17.236 18.5234 17.3691C18.2746 17.5022 17.9968 17.5718 17.7147 17.5718H0.857171C0.700787 17.5718 0.547383 17.529 0.41357 17.4481C0.279757 17.3672 0.170634 17.2512 0.098017 17.1127C0.0254001 16.9742 -0.00794338 16.8184 0.00159677 16.6623C0.0111369 16.5062 0.0631973 16.3557 0.152141 16.2271L5.14307 9L0.152141 1.7729C0.0631973 1.64427 0.0111369 1.49376 0.00159677 1.33767C-0.00794338 1.18158 0.0254001 1.02585 0.098017 0.887349C0.170634 0.748847 0.279757 0.632849 0.41357 0.551917C0.547383 0.470985 0.700787 0.428201 0.857171 0.4282H17.7147C17.9968 0.428193 18.2746 0.497817 18.5234 0.630897C18.7722 0.763976 18.9842 0.956396 19.1408 1.19109L23.7117 8.04853C23.8997 8.33025 24 8.66133 24 9C24 9.33867 23.8997 9.66975 23.7117 9.95147Z" fill="#032CFC"></path>
							</svg>