<svg
  xmlns="http://www.w3.org/2000/svg"
  width="12"
  height="13"
  viewBox="0 0 12 13"
  fill="none"
>
  <path
    d="M1.95033 1.16186C3.13583 1.00795 4.34455 0.928589 5.57159 0.928589C6.79851 0.928589 8.00711 1.00793 9.1925 1.16182C10.2909 1.30441 11.0733 2.22537 11.1385 3.29141C10.9523 3.22924 10.755 3.188 10.5486 3.17087C9.75512 3.10501 8.95275 3.07145 8.14284 3.07145C7.33293 3.07145 6.53058 3.10501 5.73713 3.17086C4.38954 3.28271 3.42857 4.42268 3.42857 5.70471V8.15356C3.42857 9.11965 3.9741 10.0044 4.81874 10.4302L3.30305 11.9459C3.18048 12.0685 2.99614 12.1052 2.83599 12.0388C2.67585 11.9725 2.57143 11.8162 2.57143 11.6429V9.34032C2.36371 9.31807 2.15667 9.29354 1.95033 9.26676C0.802664 9.11776 0 8.11905 0 6.99295V3.43566C0 2.30957 0.802661 1.31087 1.95033 1.16186Z"
    fill="#032CFC"
  ></path>
  <path
    d="M8.14284 3.92859C7.35662 3.92859 6.57793 3.96117 5.80803 4.02507C4.92843 4.09807 4.28571 4.84448 4.28571 5.70471V8.15356C4.28571 9.01509 4.93027 9.76192 5.81098 9.83381C6.52175 9.89182 7.24002 9.92356 7.96479 9.92804L9.5541 11.5173C9.67667 11.6399 9.861 11.6766 10.0211 11.6103C10.1813 11.5439 10.2857 11.3876 10.2857 11.2143V9.84865C10.3488 9.84393 10.4118 9.839 10.4747 9.83386C11.3554 9.76199 12 9.01515 12 8.15361V5.70471C12 4.84449 11.3573 4.09808 10.4777 4.02507C9.70778 3.96117 8.92906 3.92859 8.14284 3.92859Z"
    fill="#032CFC"
  ></path>
</svg>
