<svg xmlns="http://www.w3.org/2000/svg" width="19" height="14" viewBox="0 0 19 14" fill="none">
										<path d="M18.1742 7.54918L14.6708 12.8052C14.5508 12.9851 14.3882 13.1325 14.1975 13.2345C14.0069 13.3365 13.794 13.3899 13.5777 13.3899H0.656993C0.53713 13.3899 0.419551 13.3571 0.316988 13.2951C0.214424 13.2331 0.130785 13.1441 0.0751268 13.038C0.0194683 12.9318 -0.00608833 12.8125 0.00122387 12.6928C0.00853608 12.5732 0.0484386 12.4578 0.116611 12.3592L3.94199 6.81991L0.116611 1.28058C0.0484386 1.18199 0.00853608 1.06663 0.00122387 0.946989C-0.00608833 0.827349 0.0194683 0.707988 0.0751268 0.601831C0.130785 0.495674 0.214424 0.406766 0.316988 0.344734C0.419551 0.282702 0.53713 0.24991 0.656993 0.249908H13.5777C13.794 0.249903 14.0069 0.303268 14.1975 0.405269C14.3882 0.50727 14.5508 0.654754 14.6708 0.834638L18.1742 6.09064C18.3183 6.30657 18.3952 6.56033 18.3952 6.81991C18.3952 7.07949 18.3183 7.33325 18.1742 7.54918Z" fill="#D3DFE6"></path>
										<path d="M18.1742 6.09061L14.6708 0.834616C14.5508 0.654732 14.3882 0.507247 14.1975 0.405246C14.0069 0.303246 13.794 0.249881 13.5777 0.249887H0.656993C0.53713 0.249888 0.419551 0.282681 0.316988 0.344713C0.214424 0.406744 0.130785 0.495652 0.0751268 0.601809C0.0194683 0.707966 -0.00608833 0.827326 0.00122387 0.946966C0.00853608 1.06661 0.0484386 1.18197 0.116611 1.28056L3.94199 6.81989C10.7305 6.8199 18.3952 6.81989 18.3952 6.81989C18.3952 6.81989 18.3183 6.30654 18.1742 6.09061Z" fill="#032CFC"></path>
									</svg>